<?xml version="1.0" encoding="utf-8"?>
<!-- Generator: Adobe Illustrator 22.1.0, SVG Export Plug-In . SVG Version: 6.00 Build 0)  -->
<svg version="1.0" id="Capa_1" xmlns="http://www.w3.org/2000/svg" xmlns:xlink="http://www.w3.org/1999/xlink" x="0px" y="0px"
	 viewBox="0 0 20.4 26.8" style="enable-background:new 0 0 20.4 26.8;" xml:space="preserve">
<style type="text/css">
	.st0{fill:#70CCC6;}
	.st1{fill:#FFFFFF;}
</style>
<path class="st0" d="M10.2,21.1c5.6,0,10.2-4.6,10.2-10.2S15.8,0.7,10.2,0.7S0,5.3,0,10.9S4.6,21.1,10.2,21.1z"/>
<path class="st0" d="M10.3,26.8l-9-19.2l18.1-0.1L10.3,26.8z"/>
<path class="st1" d="M13.1,8.4L13.1,8.4L13.1,8.4l-0.5,7h0v0c0,0.2-0.2,0.4-0.4,0.4H7.8c-0.2,0-0.4-0.2-0.4-0.4L7,8.4l0,0h0H6.6h0
	l0,0l0.4,7v0c0,0.4,0.4,0.8,0.9,0.8h4.5c0.4,0,0.8-0.4,0.9-0.8v0l0.4-7l0,0h0H13.1z"/>
<path class="st1" d="M13.9,6.6H6.2C5.9,6.6,5.7,6.8,5.7,7v0.8c0,0.2,0.2,0.5,0.5,0.5h7.8c0.2,0,0.5-0.2,0.5-0.5V7
	C14.4,6.8,14.2,6.6,13.9,6.6z M13.9,7.8H6.2V7h7.7V7.8z"/>
<path class="st1" d="M10,14.8c0,0.1,0,0.1,0,0.1c0,0,0.1,0,0.1,0c0,0,0.1,0,0.1,0c0,0,0-0.1,0-0.1V8.9c0,0,0-0.1,0-0.1
	c0,0-0.1,0-0.1,0c-0.1,0-0.1,0-0.1,0c0,0,0,0.1,0,0.1V14.8z"/>
<path class="st1" d="M11.5,14.8L11.5,14.8L11.5,14.8c0,0,0,0.1,0,0.1c0,0,0.1,0,0.1,0c0,0,0.1,0,0.1,0c0,0,0-0.1,0-0.1L12,8.9h0v0
	c0,0,0-0.1,0-0.1c0,0-0.1,0-0.1,0c0,0-0.1,0-0.1,0c0,0,0,0.1,0,0.1L11.5,14.8z"/>
<path class="st1" d="M8.2,8.9L8.2,8.9L8.2,8.9l0.3,5.9c0,0.1,0,0.1,0,0.1c0,0,0.1,0,0.1,0c0,0,0.1,0,0.1,0c0,0,0-0.1,0-0.1h0l0,0
	L8.5,8.9c0-0.1,0-0.1,0-0.1c0,0-0.1,0-0.1,0c-0.1,0-0.1,0-0.1,0C8.2,8.9,8.2,8.9,8.2,8.9z"/>
<path class="st1" d="M8.9,6.4L8.9,6.4L8.9,6.4l0-0.2C8.9,6.1,9,6,9.1,6h2c0.1,0,0.2,0.1,0.2,0.2v0.2v0h0h0.4h0v0V6.2
	c0-0.4-0.3-0.7-0.7-0.7h-2c-0.4,0-0.7,0.3-0.7,0.7v0.2v0h0H8.9z"/>
</svg>
