<?xml version="1.0" encoding="utf-8"?>
<!-- Generator: Adobe Illustrator 22.1.0, SVG Export Plug-In . SVG Version: 6.00 Build 0)  -->
<svg version="1.0" id="Capa_1" xmlns="http://www.w3.org/2000/svg" xmlns:xlink="http://www.w3.org/1999/xlink" x="0px" y="0px"
	 viewBox="0 0 25.4 32.7" style="enable-background:new 0 0 25.4 32.7;" xml:space="preserve" width="25.4px">
<style type="text/css">
	.st0{fill:#70CCC6;}
	.st1{fill:#FFFFFF;}
</style>
<path class="st0" d="M12.7,25.6c7,0,12.7-5.7,12.7-12.7S19.7,0.2,12.7,0.2S0,5.9,0,12.9S5.7,25.6,12.7,25.6z"/>
<path class="st0" d="M12.8,32.7L1.6,8.8l22.5-0.1L12.8,32.7z"/>
<path class="st1" d="M16.3,9.8L16.3,9.8L16.3,9.8l-0.6,8.7h0v0c0,0.2-0.2,0.4-0.5,0.4H9.7c-0.2,0-0.4-0.2-0.5-0.4L8.7,9.8l0,0h0H8.1
	H8.1l0,0.1l0.5,8.7v0c0,0.5,0.5,1,1.1,1h5.6c0.5,0,1-0.4,1.1-1v0l0.5-8.7l0-0.1h-0.1H16.3z"/>
<path class="st1" d="M17.3,7.5H7.7c-0.3,0-0.6,0.3-0.6,0.6v1c0,0.3,0.3,0.6,0.6,0.6h9.6c0.3,0,0.6-0.3,0.6-0.6v-1
	C17.9,7.7,17.6,7.5,17.3,7.5z M17.3,9H7.7V8.1h9.6V9z"/>
<path class="st1" d="M12.4,17.8c0,0.1,0,0.1,0.1,0.1c0,0,0.1,0,0.1,0c0,0,0.1,0,0.1,0c0,0,0.1-0.1,0.1-0.1v-7.3c0-0.1,0-0.1,0-0.1
	c0,0-0.1,0-0.1,0c-0.1,0-0.1,0-0.1,0.1c0,0,0,0.1,0,0.1V17.8z"/>
<path class="st1" d="M14.3,17.8L14.3,17.8L14.3,17.8c0,0.1,0,0.1,0.1,0.1c0,0,0.1,0.1,0.1,0.1c0,0,0.1,0,0.1,0c0,0,0.1-0.1,0.1-0.1
	l0.3-7.3h0v0c0-0.1,0-0.1-0.1-0.1c0,0-0.1-0.1-0.1-0.1c-0.1,0-0.1,0-0.1,0.1c0,0-0.1,0.1-0.1,0.1L14.3,17.8z"/>
<path class="st1" d="M10.2,10.4L10.2,10.4L10.2,10.4l0.3,7.3c0,0.1,0,0.1,0.1,0.1c0,0,0.1,0,0.1,0c0.1,0,0.1,0,0.1,0
	c0,0,0-0.1,0-0.1h0l0,0l-0.3-7.3c0-0.1,0-0.1-0.1-0.1c0,0-0.1,0-0.1,0c-0.1,0-0.1,0-0.1,0.1C10.2,10.4,10.2,10.4,10.2,10.4z"/>
<path class="st1" d="M11.1,7.3L11.1,7.3L11.1,7.3l0-0.3c0-0.1,0.1-0.2,0.2-0.2h2.5c0.1,0,0.2,0.1,0.2,0.2v0.2v0h0h0.5h0v0V7
	c0-0.4-0.4-0.8-0.8-0.8h-2.5c-0.4,0-0.8,0.4-0.8,0.8v0.2v0h0H11.1z"/>
</svg>
