<?xml version="1.0" encoding="utf-8"?>
<!-- Generator: Adobe Illustrator 22.1.0, SVG Export Plug-In . SVG Version: 6.00 Build 0)  -->
<svg version="1.0" id="Capa_1" xmlns="http://www.w3.org/2000/svg" xmlns:xlink="http://www.w3.org/1999/xlink" x="0px" y="0px"
	 viewBox="0 0 25.4 32.7" width="25.4px" style="enable-background:new 0 0 25.4 32.7;" xml:space="preserve">
<style type="text/css">
	.st0{fill:#70CCC6;}
	.st1{fill:#EBFFFC;}
</style>
<path class="st0" d="M12.8,25.6c7,0,12.7-5.7,12.7-12.7S19.8,0.2,12.8,0.2S0.1,5.9,0.1,12.9S5.8,25.6,12.8,25.6z"/>
<path class="st0" d="M12.8,32.7L1.5,8.8l22.5-0.1L12.8,32.7z"/>
<g>
	<path class="st1" d="M17.6,17.2c0,1.5-1.3,2.7-2.8,2.6c-0.2,0-0.5-0.1-0.7-0.3c-0.2-0.1-0.4-0.3-0.6-0.4c-0.5-0.3-0.9-0.3-1.4,0
		c-0.1,0.1-0.3,0.2-0.4,0.3c-0.5,0.4-1.1,0.5-1.7,0.3c-1.3-0.4-2.1-1.5-2-2.8c0-0.5,0.4-0.9,0.8-1.3c0.3-0.3,0.6-0.5,0.9-0.8
		c0.5-0.4,0.9-1,1.2-1.5c0.3-0.4,0.5-0.8,1-1c0.7-0.4,1.5-0.3,2.1,0.2c0.2,0.2,0.4,0.4,0.6,0.7c0.6,1,1.4,1.8,2.3,2.5
		c0.4,0.3,0.7,0.7,0.8,1.2C17.6,17,17.6,17.1,17.6,17.2z"/>
	<path class="st1" d="M16.4,8.8c0,0.6-0.2,1.2-0.6,1.6c-0.6,0.7-1.5,0.7-2.1,0c-0.8-0.8-0.8-2.5,0-3.4c0.7-0.7,1.7-0.6,2.3,0.2
		C16.3,7.8,16.4,8.3,16.4,8.8z"/>
	<path class="st1" d="M12.5,8.8c0,0.6-0.2,1.1-0.5,1.6c-0.7,0.8-1.7,0.8-2.3-0.1C9,9.4,9.1,8,9.8,7.2c0.7-0.8,1.8-0.7,2.4,0.3
		C12.4,7.9,12.5,8.3,12.5,8.8z"/>
	<path class="st1" d="M19.5,11.9c-0.1,0.9-0.4,1.7-1.2,2.2c-0.9,0.6-1.9,0.2-2.2-0.8c-0.3-1,0.1-2.3,1-2.9c1-0.6,2-0.2,2.3,0.9
		C19.5,11.6,19.5,11.7,19.5,11.9z"/>
	<path class="st1" d="M9.4,12.3c0,0.7-0.2,1.3-0.6,1.7c-0.6,0.5-1.3,0.4-1.9-0.1c-0.9-0.7-1.1-2.2-0.5-3.2c0.5-0.8,1.5-0.9,2.2-0.3
		C9.2,11,9.4,11.7,9.4,12.3z"/>
</g>
</svg>
