<svg width="131" height="131" viewBox="0 0 131 131" fill="none" xmlns="http://www.w3.org/2000/svg">
<g clip-path="url(#clip0)">
<path d="M47.5786 107.669C55.7583 110 64.2543 110.493 72.9312 109.641C77.134 109.193 81.0205 108.207 84.7714 106.773C89.6973 104.89 93.855 102.335 98.1482 99.8698C98.5549 99.4215 98.8713 98.8837 99.3684 98.4802C103.436 94.9392 106.554 90.9947 108 86.4226C107.729 84.3159 107.864 82.2092 107.141 80.1473C106.147 77.413 104.159 75.4408 100.272 74.6788C99.5491 74.9925 99.3232 75.5304 99.0068 76.0235C97.3347 78.6233 94.2165 80.1921 90.9175 81.4023C85.5397 83.4194 79.7099 84.4504 73.609 84.8538C62.4467 85.6158 51.4651 85.302 40.9806 82.1195C36.4614 80.73 32.2585 78.8922 30.3153 75.2615C30.1797 74.9925 29.6826 74.8132 29.3211 74.5891C26.4288 75.1718 24.5308 76.4717 23.3558 78.5336C21.9096 81.1334 21.8644 83.778 22.0452 86.5123C22.226 87.2743 22.4067 88.0363 22.5875 88.7983C23.5365 90.6361 24.7115 92.3842 25.9769 94.0875C27.4682 96.0598 29.773 97.5838 31.2643 99.5112C31.5807 99.6457 31.9422 99.7801 32.2134 99.9594C36.5518 103.321 41.794 105.742 47.5786 107.669Z" fill="#E09090"/>
<path d="M91.0079 41.6884C88.6127 34.4269 83.3705 30.1238 75.959 27.6137C66.8755 24.5208 58.9217 26.6724 60.5486 27.6585C61.7688 28.4205 71.3947 28.1067 72.3889 33.7545C72.7052 35.9061 71.3947 36.6233 70.4908 37.0715C68.5928 38.0128 68.1408 37.9232 66.5139 38.0128C63.0794 38.1921 61.3621 37.7439 56.2102 38.5507C51.0583 39.3575 49.5218 39.8058 45.9969 42.047C42.4719 44.2882 41.2969 46.0811 40.4383 49.3084C39.7152 51.8634 40.5287 54.1943 40.5738 56.6147C42.4719 58.4077 44.0084 60.5592 46.2228 61.9936C52.1881 65.8485 58.9669 67.4173 65.9716 67.1484C72.2081 66.8794 78.1282 65.2658 83.1897 61.3213C85.2685 59.7524 86.3531 57.3319 88.7031 56.0769C88.2964 55.1804 89.0195 54.5528 89.381 53.8805C91.3694 49.936 92.1377 45.9018 91.0079 41.6884Z" fill="#E09090"/>
<path d="M100.272 74.1858C99.8203 72.9755 100.317 71.7653 100.317 70.5102C100.363 62.8005 96.0242 56.8837 88.206 54.2839C85.9012 55.7183 84.7714 58.4077 82.7378 60.2007C77.6763 64.6383 71.7562 66.476 65.5197 66.7898C58.4698 67.1036 51.7362 65.3554 45.7257 61.0075C43.4661 59.3939 41.9748 56.9285 40.0315 54.9563C32.3941 58.2284 29.0951 63.7418 29.5922 72.5273C29.6374 73.11 29.7278 73.6927 29.3663 74.1858C29.6826 74.4995 30.2249 74.7685 30.3605 75.1719C32.3037 80.5507 36.5066 83.285 41.0258 85.3021C51.5103 90.0086 62.4919 90.5017 73.6542 89.3362C79.7551 88.7087 85.5397 87.1399 90.9627 84.1367C94.2617 82.3437 97.3347 79.968 99.052 76.158C99.3232 75.4408 99.5491 74.634 100.272 74.1858Z" fill="#E09090"/>
<path d="M41.4325 56.5699C45.093 59.0801 48.8891 61.3213 52.9564 62.8453C53.2275 62.9349 53.4535 63.0694 53.7246 63.1142L54.4929 63.3383C54.99 63.4728 55.5323 63.6969 56.0294 63.8314L57.6111 64.19C57.8823 64.2796 58.1534 64.3245 58.3794 64.3693L59.1477 64.5038C61.2717 64.8624 63.3957 64.9968 65.5197 64.8624C69.7677 64.6382 73.9706 63.4728 77.8571 61.635C79.8003 60.6937 81.6984 59.618 83.5061 58.4077C84.4099 57.825 85.3137 57.1526 86.1724 56.4803C86.6243 56.1665 87.031 55.8079 87.4829 55.4493C87.8897 55.0907 88.3416 54.7322 88.7031 54.3287C88.1156 55.27 87.3474 56.1217 86.6243 56.9285C85.856 57.7354 85.0426 58.4974 84.1839 59.2594C82.4666 60.7386 80.659 62.0384 78.6705 63.159C74.7388 65.4002 70.2197 66.8346 65.6101 67.1035C63.3053 67.238 61.0005 67.0587 58.7409 66.6105L57.8823 66.4312C57.6111 66.3864 57.34 66.2967 57.0688 66.2071L55.4419 65.714C54.8996 65.5347 54.3573 65.3106 53.815 65.1313L53.0016 64.8175C52.7304 64.7279 52.5045 64.5934 52.2333 64.4589C48.1209 62.5315 44.4603 59.7973 41.4325 56.5699Z" fill="#D67171"/>
<path d="M29.3663 74.4995C34.4729 78.7578 39.896 82.5678 45.8161 85.3469C51.7362 88.126 58.1534 89.7396 64.6159 89.7845C67.8697 89.8293 71.0783 89.4707 74.2869 88.7983C77.4503 88.126 80.5686 87.095 83.5964 85.7951C85.0878 85.1676 86.5791 84.4504 88.0252 83.6884C89.4714 82.9264 90.8723 82.0748 92.2732 81.2231C93.6742 80.3714 95.0299 79.3853 96.3405 78.3992C97.0184 77.9061 97.6511 77.4131 98.2838 76.8752C98.9164 76.3373 99.5943 75.8442 100.137 75.2167C99.1424 76.5614 97.9674 77.7268 96.7472 78.8923C95.5271 80.0577 94.2617 81.0886 92.9059 82.1196C90.2396 84.1367 87.3473 85.9296 84.3195 87.4088C81.2916 88.9328 78.083 90.0534 74.784 90.8602C71.485 91.6671 68.0504 92.0705 64.6159 92.0257C61.1813 91.9808 57.7919 91.4878 54.4929 90.6361C52.866 90.1879 51.2391 89.65 49.6574 89.0225C48.0757 88.3949 46.5392 87.6777 45.0478 86.8709C39.0825 83.7332 33.8403 79.4301 29.3663 74.4995Z" fill="#D67171"/>
</g>
<defs>
<clipPath id="clip0">
<rect width="86" height="84" fill="white" transform="translate(22 26)"/>
</clipPath>
</defs>
</svg>
